<svg width="111" height="35" viewBox="0 0 111 35" fill="none" xmlns="http://www.w3.org/2000/svg">
<g clip-path="url(#clip0_7_185)">
<g clip-path="url(#clip1_7_185)">
<g clip-path="url(#clip2_7_185)">
<path d="M92.9315 0.681261H8.86271C8.55627 0.681261 8.2535 0.681261 7.94787 0.682932C7.69203 0.684604 7.43823 0.689459 7.17993 0.693545C6.61879 0.700149 6.05896 0.749516 5.50533 0.841217C4.95247 0.934915 4.41692 1.11156 3.91681 1.36518C3.41731 1.62095 2.96091 1.95329 2.56415 2.35016C2.16531 2.7459 1.83285 3.20334 1.57954 3.70486C1.32554 4.20538 1.14942 4.74174 1.05725 5.29541C0.964206 5.84838 0.914139 6.40773 0.907497 6.96843C0.899742 7.22465 0.898923 7.48171 0.894836 7.73797V27.0539C0.898923 27.3134 0.899742 27.5648 0.907497 27.8243C0.914141 28.385 0.964208 28.9443 1.05725 29.4973C1.14916 30.0513 1.3253 30.5879 1.57954 31.0886C1.83273 31.5885 2.16524 32.0441 2.56415 32.4377C2.9594 32.8363 3.4161 33.1689 3.91681 33.4227C4.41692 33.677 4.9524 33.8547 5.50533 33.9498C6.05906 34.0408 6.61882 34.0902 7.17993 34.0976C7.43823 34.1032 7.69203 34.1065 7.94787 34.1065C8.25349 34.1082 8.55628 34.1082 8.86271 34.1082H92.9315C93.2318 34.1082 93.537 34.1082 93.8373 34.1065C94.092 34.1065 94.3531 34.1032 94.6077 34.0976C95.1678 34.0906 95.7265 34.0412 96.2791 33.9498C96.8338 33.854 97.3712 33.6763 97.8737 33.4227C98.374 33.1687 98.8302 32.8362 99.2252 32.4377C99.623 32.0426 99.9563 31.5873 100.213 31.0886C100.465 30.5876 100.639 30.0509 100.73 29.4973C100.823 28.9442 100.875 28.3851 100.885 27.8243C100.888 27.5648 100.888 27.3134 100.888 27.0539C100.895 26.7503 100.895 26.4484 100.895 26.1399V8.65034C100.895 8.34431 100.895 8.04073 100.888 7.73797C100.888 7.48171 100.888 7.22465 100.885 6.96839C100.875 6.40764 100.823 5.84842 100.73 5.29538C100.639 4.74203 100.465 4.20571 100.213 3.70483C99.6968 2.69957 98.8788 1.88131 97.8737 1.36511C97.3712 1.11211 96.8337 0.935506 96.2791 0.841142C95.7266 0.749036 95.1678 0.699652 94.6077 0.693428C94.3531 0.68935 94.092 0.684453 93.8373 0.682824C93.537 0.681152 93.2318 0.681261 92.9315 0.681261Z" fill="#A6A6A6"/>
<path d="M7.95195 33.3771C7.69734 33.3771 7.44888 33.3738 7.19626 33.3681C6.67295 33.3613 6.15086 33.3158 5.63427 33.2318C5.15258 33.1489 4.68596 32.9946 4.24978 32.774C3.81761 32.5552 3.42343 32.2684 3.08235 31.9244C2.73633 31.5845 2.44825 31.1903 2.22953 30.7574C2.00841 30.3217 1.85537 29.8546 1.77576 29.3725C1.68979 28.8545 1.64328 28.3307 1.63662 27.8057C1.63133 27.6294 1.62439 27.0426 1.62439 27.0426V7.73809C1.62439 7.73809 1.63178 7.1603 1.63667 6.99055C1.64304 6.46631 1.68928 5.94333 1.77499 5.42611C1.85475 4.94269 2.0079 4.47429 2.22915 4.03714C2.44706 3.60452 2.73354 3.21001 3.07747 2.86891C3.42102 2.52456 3.81646 2.23624 4.24937 2.01446C4.68454 1.79458 5.15029 1.64135 5.63101 1.5599C6.14929 1.47514 6.67319 1.42931 7.19832 1.4228L7.95236 1.4126H93.8332L94.5963 1.42321C95.1166 1.42939 95.6358 1.47481 96.1493 1.55908C96.6349 1.64155 97.1055 1.79585 97.5456 2.01691C98.4129 2.46386 99.1186 3.17099 99.5638 4.03918C99.7815 4.47331 99.9323 4.93789 100.011 5.41713C100.098 5.93859 100.146 6.46569 100.156 6.99422C100.159 7.23089 100.159 7.4851 100.159 7.73809C100.165 8.05147 100.165 8.34974 100.165 8.65047V26.14C100.165 26.4436 100.165 26.7398 100.159 27.0385C100.159 27.3103 100.159 27.5592 100.155 27.8154C100.146 28.3345 100.098 28.8522 100.013 29.3643C99.9346 29.8499 99.7824 30.3206 99.5614 30.7599C99.3411 31.1881 99.0547 31.5789 98.7127 31.9179C98.3713 32.2637 97.9764 32.5522 97.5432 32.7724C97.1043 32.9947 96.6344 33.1496 96.1493 33.2318C95.6328 33.3162 95.1106 33.3618 94.5873 33.3681C94.3425 33.3738 94.0862 33.3771 93.8373 33.3771L92.9315 33.3787L7.95195 33.3771Z" fill="black"/>
<path d="M21.5935 17.6458C21.6025 16.9483 21.7878 16.2644 22.1321 15.6577C22.4764 15.0511 22.9686 14.5413 23.5628 14.176C23.1853 13.6369 22.6873 13.1932 22.1083 12.8802C21.5294 12.5672 20.8854 12.3935 20.2275 12.3729C18.8242 12.2256 17.4638 13.2126 16.7487 13.2126C16.0198 13.2126 14.9188 12.3875 13.7332 12.4119C12.9663 12.4367 12.2189 12.6597 11.5639 13.0592C10.9088 13.4587 10.3684 14.0211 9.99529 14.6915C8.3791 17.4897 9.58463 21.6021 11.1328 23.8639C11.9074 24.9715 12.8127 26.2087 13.9972 26.1648C15.1563 26.1167 15.5892 25.4257 16.9884 25.4257C18.3746 25.4257 18.7807 26.1648 19.9893 26.1369C21.2331 26.1167 22.0167 25.0244 22.7642 23.9064C23.3207 23.1172 23.7489 22.245 24.0331 21.322C23.3104 21.0164 22.6938 20.5048 22.26 19.8511C21.8261 19.1973 21.5944 18.4304 21.5935 17.6458Z" fill="white"/>
<path d="M19.3108 10.8853C19.9889 10.0712 20.3231 9.02475 20.2422 7.96826C19.2061 8.07708 18.249 8.57227 17.5617 9.35515C17.2256 9.73761 16.9682 10.1826 16.8042 10.6645C16.6402 11.1465 16.5728 11.6561 16.6059 12.1642C17.1241 12.1695 17.6368 12.0572 18.1053 11.8357C18.5739 11.6141 18.986 11.2892 19.3108 10.8853Z" fill="white"/>
<path d="M36.2457 23.3606H32.2901L31.3402 26.1655H29.6648L33.4114 15.7881H35.1521L38.8988 26.1655H37.1948L36.2457 23.3606ZM32.6998 22.0663H35.8352L34.2896 17.5141H34.2463L32.6998 22.0663Z" fill="white"/>
<path d="M46.9903 22.383C46.9903 24.7341 45.7319 26.2447 43.8329 26.2447C43.3518 26.2699 42.8734 26.1591 42.4524 25.9249C42.0314 25.6908 41.6848 25.3429 41.4523 24.921H41.4164V28.6685H39.8634V18.5996H41.3666V19.858H41.3952C41.6384 19.4381 41.9908 19.092 42.415 18.8565C42.8392 18.6209 43.3193 18.5048 43.8043 18.5204C45.7245 18.5204 46.9903 20.0384 46.9903 22.383ZM45.394 22.383C45.394 20.8512 44.6024 19.8441 43.3946 19.8441C42.208 19.8441 41.4099 20.8724 41.4099 22.383C41.4099 23.9074 42.208 24.9284 43.3946 24.9284C44.6024 24.9284 45.394 23.9287 45.394 22.383Z" fill="white"/>
<path d="M55.3176 22.383C55.3176 24.7341 54.0592 26.2447 52.1602 26.2447C51.6791 26.2699 51.2007 26.159 50.7797 25.9249C50.3587 25.6908 50.0121 25.3429 49.7797 24.921H49.7437V28.6685H48.1907V18.5996H49.694V19.858H49.7225C49.9657 19.4381 50.3181 19.092 50.7423 18.8564C51.1665 18.6209 51.6467 18.5048 52.1316 18.5204C54.0519 18.5204 55.3176 20.0384 55.3176 22.383ZM53.7214 22.383C53.7214 20.8512 52.9298 19.8441 51.722 19.8441C50.5354 19.8441 49.7372 20.8724 49.7372 22.383C49.7372 23.9074 50.5354 24.9284 51.722 24.9284C52.9298 24.9284 53.7214 23.9286 53.7214 22.383Z" fill="white"/>
<path d="M60.8213 23.2743C60.9364 24.3033 61.9361 24.979 63.3022 24.979C64.6112 24.979 65.553 24.3033 65.553 23.3754C65.553 22.5699 64.985 22.0876 63.6401 21.7571L62.2952 21.4331C60.3896 20.9728 59.505 20.0817 59.505 18.6356C59.505 16.8451 61.0653 15.6152 63.281 15.6152C65.4738 15.6152 66.9771 16.8451 67.0277 18.6356H65.4599C65.3661 17.6 64.51 16.9748 63.259 16.9748C62.0079 16.9748 61.1518 17.6073 61.1518 18.5279C61.1518 19.2615 61.6986 19.6932 63.0362 20.0237L64.1795 20.3044C66.3087 20.808 67.1933 21.6632 67.1933 23.1811C67.1933 25.1226 65.6468 26.3386 63.1871 26.3386C60.8858 26.3386 59.3319 25.1512 59.2316 23.2742L60.8213 23.2743Z" fill="white"/>
<path d="M70.545 16.8091V18.5996H71.9838V19.8294H70.545V24.0004C70.545 24.6484 70.8331 24.9504 71.4655 24.9504C71.6364 24.9474 71.8069 24.9354 71.9764 24.9144V26.1369C71.6921 26.1901 71.403 26.2141 71.1138 26.2087C69.582 26.2087 68.9846 25.6334 68.9846 24.1661V19.8294H67.8846V18.5996H68.9846V16.8091H70.545Z" fill="white"/>
<path d="M72.817 22.3832C72.817 20.0027 74.2191 18.5068 76.4054 18.5068C78.599 18.5068 79.9945 20.0027 79.9945 22.3832C79.9945 24.7703 78.6064 26.2597 76.4054 26.2597C74.2052 26.2597 72.817 24.7703 72.817 22.3832ZM78.4121 22.3832C78.4121 20.7503 77.6638 19.7865 76.4054 19.7865C75.147 19.7865 74.3994 20.7576 74.3994 22.3832C74.3994 24.0228 75.147 24.9792 76.4054 24.9792C77.6638 24.9792 78.4121 24.0228 78.4121 22.3832Z" fill="white"/>
<path d="M81.2749 18.5995H82.7561V19.8873H82.792C82.8923 19.4851 83.1279 19.1297 83.4593 18.8807C83.7907 18.6318 84.1977 18.5045 84.6119 18.5204C84.7909 18.5197 84.9694 18.5392 85.144 18.5783V20.0309C84.9181 19.9619 84.6824 19.9302 84.4462 19.9371C84.2206 19.9279 83.9957 19.9677 83.7869 20.0537C83.5781 20.1397 83.3904 20.2698 83.2367 20.4352C83.0829 20.6006 82.9668 20.7972 82.8962 21.0117C82.8257 21.2262 82.8024 21.4534 82.8279 21.6778V26.1655H81.2749L81.2749 18.5995Z" fill="white"/>
<path d="M92.3043 23.9436C92.0954 25.3171 90.7578 26.2597 89.0465 26.2597C86.8455 26.2597 85.4794 24.785 85.4794 22.4192C85.4794 20.046 86.8529 18.5068 88.9812 18.5068C91.0745 18.5068 92.3908 19.9448 92.3908 22.2388V22.7709H87.0471V22.8647C87.0224 23.1432 87.0573 23.4237 87.1494 23.6876C87.2414 23.9516 87.3886 24.1929 87.5811 24.3956C87.7736 24.5983 88.0071 24.7577 88.2659 24.8632C88.5247 24.9688 88.8031 25.0181 89.0824 25.0078C89.4494 25.0422 89.8177 24.9572 90.1325 24.7654C90.4473 24.5737 90.6918 24.2855 90.8297 23.9436L92.3043 23.9436ZM87.0544 21.6855H90.837C90.851 21.4351 90.813 21.1846 90.7255 20.9496C90.638 20.7146 90.5029 20.5002 90.3287 20.3199C90.1544 20.1396 89.9448 19.9972 89.7129 19.9018C89.481 19.8063 89.2319 19.7599 88.9812 19.7652C88.7283 19.7637 88.4776 19.8123 88.2436 19.9082C88.0096 20.0041 87.7969 20.1454 87.6177 20.3239C87.4386 20.5024 87.2966 20.7147 87.1999 20.9484C87.1032 21.1821 87.0538 21.4326 87.0544 21.6855Z" fill="white"/>
<path d="M32.5052 7.97783C32.8307 7.95446 33.1575 8.00365 33.4617 8.12184C33.766 8.24003 34.0403 8.42428 34.2647 8.6613C34.4892 8.89832 34.6582 9.18219 34.7597 9.49246C34.8611 9.80272 34.8925 10.1316 34.8514 10.4555C34.8514 12.0485 33.9904 12.9642 32.5052 12.9642H30.7041V7.97783H32.5052ZM31.4785 12.259H32.4186C32.6513 12.2729 32.8841 12.2347 33.1002 12.1473C33.3162 12.0599 33.5101 11.9254 33.6676 11.7536C33.8251 11.5818 33.9423 11.3771 34.0108 11.1543C34.0792 10.9315 34.097 10.6962 34.0631 10.4656C34.0946 10.236 34.0749 10.0022 34.0054 9.78098C33.936 9.55981 33.8185 9.35674 33.6613 9.18632C33.5041 9.0159 33.3112 8.88235 33.0964 8.79525C32.8816 8.70814 32.6501 8.66963 32.4186 8.68247H31.4785V12.259Z" fill="white"/>
<path d="M35.7262 11.0809C35.7026 10.8336 35.7309 10.5841 35.8093 10.3484C35.8877 10.1126 36.0145 9.89591 36.1816 9.71208C36.3487 9.52824 36.5524 9.38136 36.7796 9.28085C37.0067 9.18034 37.2524 9.12842 37.5008 9.12842C37.7492 9.12842 37.9949 9.18034 38.2221 9.28085C38.4493 9.38136 38.6529 9.52824 38.82 9.71208C38.9871 9.89591 39.1139 10.1126 39.1924 10.3484C39.2708 10.5841 39.2991 10.8336 39.2754 11.0809C39.2995 11.3284 39.2716 11.5783 39.1933 11.8144C39.1151 12.0505 38.9884 12.2676 38.8213 12.4518C38.6541 12.636 38.4503 12.7832 38.2229 12.8839C37.9955 12.9846 37.7495 13.0367 37.5008 13.0367C37.2521 13.0367 37.0061 12.9846 36.7787 12.8839C36.5513 12.7832 36.3475 12.636 36.1804 12.4518C36.0133 12.2676 35.8865 12.0505 35.8083 11.8144C35.7301 11.5783 35.7021 11.3284 35.7262 11.0809ZM38.5115 11.0809C38.5115 10.2652 38.1451 9.78819 37.502 9.78819C36.8565 9.78819 36.4934 10.2652 36.4934 11.0809C36.4934 11.9031 36.8565 12.3764 37.502 12.3764C38.1451 12.3764 38.5115 11.8998 38.5115 11.0809Z" fill="white"/>
<path d="M43.9932 12.9637H43.2228L42.4451 10.1922H42.3863L41.6119 12.9637H40.8488L39.8116 9.20068H40.5648L41.2389 12.0721H41.2944L42.0681 9.20068H42.7805L43.5542 12.0721H43.6129L44.2837 9.20068H45.0264L43.9932 12.9637Z" fill="white"/>
<path d="M45.8988 9.20085H46.6137V9.79863H46.6692C46.7633 9.58393 46.9221 9.40395 47.1234 9.28378C47.3247 9.1636 47.5584 9.10922 47.7921 9.12822C47.9752 9.11445 48.159 9.14206 48.33 9.20899C48.501 9.27592 48.6547 9.38047 48.7798 9.51488C48.9049 9.6493 48.9981 9.81013 49.0526 9.98547C49.1071 10.1608 49.1214 10.3462 49.0946 10.5278V12.9638H48.3519V10.7143C48.3519 10.1096 48.0892 9.80884 47.5399 9.80884C47.4156 9.80305 47.2915 9.82421 47.1761 9.87086C47.0608 9.91752 46.9569 9.98857 46.8715 10.0791C46.7862 10.1697 46.7214 10.2777 46.6817 10.3956C46.642 10.5136 46.6282 10.6387 46.6414 10.7624V12.9638H45.8988L45.8988 9.20085Z" fill="white"/>
<path d="M50.2779 7.73193H51.0205V12.9639H50.2779V7.73193Z" fill="white"/>
<path d="M52.0529 11.0809C52.0292 10.8336 52.0575 10.5841 52.136 10.3484C52.2144 10.1127 52.3413 9.89592 52.5084 9.71209C52.6755 9.52825 52.8791 9.38136 53.1063 9.28085C53.3335 9.18034 53.5792 9.12842 53.8277 9.12842C54.0761 9.12842 54.3218 9.18034 54.549 9.28085C54.7762 9.38136 54.9798 9.52825 55.147 9.71209C55.3141 9.89592 55.4409 10.1127 55.5193 10.3484C55.5978 10.5841 55.6261 10.8336 55.6024 11.0809C55.6265 11.3285 55.5985 11.5783 55.5203 11.8144C55.4421 12.0505 55.3153 12.2677 55.1482 12.4518C54.981 12.636 54.7772 12.7832 54.5498 12.8839C54.3223 12.9847 54.0764 13.0367 53.8277 13.0367C53.5789 13.0367 53.333 12.9847 53.1055 12.8839C52.8781 12.7832 52.6743 12.636 52.5072 12.4518C52.34 12.2677 52.2132 12.0505 52.135 11.8144C52.0568 11.5783 52.0288 11.3285 52.0529 11.0809ZM54.8382 11.0809C54.8382 10.2653 54.4717 9.78826 53.8287 9.78826C53.1831 9.78826 52.82 10.2653 52.82 11.0809C52.82 11.9032 53.1832 12.3765 53.8287 12.3765C54.4717 12.3765 54.8382 11.8999 54.8382 11.0809Z" fill="white"/>
<path d="M56.3843 11.8998C56.3843 11.2225 56.8886 10.832 57.7838 10.7765L58.8031 10.7177V10.3929C58.8031 9.9955 58.5404 9.77108 58.0328 9.77108C57.6182 9.77108 57.3309 9.92329 57.2485 10.1893H56.5295C56.6054 9.54299 57.2134 9.12842 58.067 9.12842C59.0104 9.12842 59.5425 9.59807 59.5425 10.3929V12.964H58.8276V12.4352H58.7689C58.6496 12.6249 58.4821 12.7795 58.2836 12.8833C58.085 12.9871 57.8624 13.0364 57.6386 13.026C57.4806 13.0425 57.321 13.0256 57.1699 12.9765C57.0188 12.9275 56.8797 12.8473 56.7616 12.7412C56.6434 12.6351 56.5488 12.5054 56.4838 12.3605C56.4188 12.2156 56.3849 12.0587 56.3843 11.8998ZM58.8031 11.5783V11.2637L57.8842 11.3225C57.366 11.3571 57.131 11.5334 57.131 11.8652C57.131 12.2038 57.4248 12.4009 57.8288 12.4009C57.9471 12.4129 58.0667 12.4009 58.1804 12.3658C58.294 12.3306 58.3994 12.2729 58.4903 12.1962C58.5812 12.1194 58.6558 12.0252 58.7095 11.919C58.7633 11.8129 58.7951 11.697 58.8031 11.5783Z" fill="white"/>
<path d="M60.5186 11.0808C60.5186 9.89172 61.1298 9.13847 62.0805 9.13847C62.3157 9.12764 62.5491 9.18396 62.7535 9.30087C62.9578 9.41777 63.1246 9.59043 63.2345 9.79865H63.29V7.73193H64.0326V12.9639H63.321V12.3693H63.2622C63.1439 12.5762 62.9712 12.7467 62.763 12.8624C62.5547 12.9781 62.3187 13.0347 62.0806 13.0259C61.1233 13.0259 60.5186 12.2727 60.5186 11.0808ZM61.2857 11.0808C61.2857 11.8789 61.6619 12.3592 62.2911 12.3592C62.917 12.3592 63.3039 11.872 63.3039 11.084C63.3039 10.2998 62.913 9.80562 62.2911 9.80562C61.666 9.80562 61.2857 10.2892 61.2857 11.0808Z" fill="white"/>
<path d="M67.1052 11.0809C67.0815 10.8336 67.1098 10.5841 67.1882 10.3484C67.2667 10.1126 67.3935 9.89591 67.5606 9.71208C67.7277 9.52824 67.9313 9.38136 68.1585 9.28085C68.3857 9.18034 68.6314 9.12842 68.8798 9.12842C69.1282 9.12842 69.3739 9.18034 69.6011 9.28085C69.8282 9.38136 70.0319 9.52824 70.199 9.71208C70.3661 9.89591 70.4929 10.1126 70.5713 10.3484C70.6497 10.5841 70.678 10.8336 70.6544 11.0809C70.6785 11.3284 70.6505 11.5783 70.5723 11.8144C70.4941 12.0505 70.3673 12.2676 70.2002 12.4518C70.0331 12.636 69.8293 12.7832 69.6019 12.8839C69.3745 12.9846 69.1285 13.0367 68.8798 13.0367C68.6311 13.0367 68.3851 12.9846 68.1577 12.8839C67.9303 12.7832 67.7265 12.636 67.5593 12.4518C67.3922 12.2676 67.2655 12.0505 67.1873 11.8144C67.109 11.5783 67.0811 11.3284 67.1052 11.0809ZM69.8905 11.0809C69.8905 10.2652 69.5241 9.78819 68.881 9.78819C68.2355 9.78819 67.8723 10.2652 67.8723 11.0809C67.8723 11.9031 68.2355 12.3764 68.881 12.3764C69.5241 12.3764 69.8905 11.8998 69.8905 11.0809Z" fill="white"/>
<path d="M71.6508 9.20085H72.3657V9.79863H72.4212C72.5153 9.58393 72.6741 9.40395 72.8754 9.28378C73.0767 9.1636 73.3105 9.10922 73.5441 9.12822C73.7272 9.11445 73.9111 9.14206 74.082 9.20899C74.253 9.27592 74.4067 9.38047 74.5318 9.51488C74.6569 9.6493 74.7501 9.81013 74.8046 9.98547C74.8591 10.1608 74.8735 10.3462 74.8466 10.5278V12.9638H74.104V10.7143C74.104 10.1096 73.8412 9.80884 73.2919 9.80884C73.1676 9.80305 73.0435 9.82421 72.9282 9.87086C72.8128 9.91752 72.7089 9.98857 72.6235 10.0791C72.5382 10.1697 72.4734 10.2777 72.4337 10.3956C72.394 10.5136 72.3803 10.6387 72.3934 10.7624V12.9638H71.6508V9.20085Z" fill="white"/>
<path d="M79.0429 8.26416V9.21816H79.8582V9.8437H79.0429V11.7786C79.0429 12.1728 79.2053 12.3454 79.575 12.3454C79.6697 12.3451 79.7642 12.3394 79.8582 12.3283V12.9469C79.7248 12.9707 79.5897 12.9834 79.4542 12.9848C78.6283 12.9848 78.2995 12.6943 78.2995 11.9688V9.84366H77.7021V9.21813H78.2995V8.26416H79.0429Z" fill="white"/>
<path d="M80.8726 7.73193H81.6087V9.80561H81.6674C81.7662 9.58891 81.9293 9.40791 82.1346 9.28728C82.3399 9.16665 82.5775 9.11226 82.8148 9.13153C82.997 9.12162 83.179 9.15202 83.3481 9.22058C83.5171 9.28915 83.669 9.39417 83.7927 9.52816C83.9165 9.66215 84.0092 9.8218 84.0642 9.99574C84.1191 10.1697 84.135 10.3536 84.1108 10.5344V12.9639H83.3674V10.7176C83.3674 10.1165 83.0874 9.81213 82.5627 9.81213C82.4351 9.80166 82.3067 9.81921 82.1865 9.86355C82.0664 9.90788 81.9574 9.97793 81.8671 10.0688C81.7769 10.1597 81.7076 10.2692 81.6641 10.3896C81.6206 10.5101 81.6039 10.6386 81.6152 10.7661V12.9639H80.8726L80.8726 7.73193Z" fill="white"/>
<path d="M88.441 11.9481C88.3401 12.292 88.1214 12.5895 87.8234 12.7885C87.5253 12.9875 87.1667 13.0754 86.8104 13.0367C86.5625 13.0433 86.3161 12.9958 86.0884 12.8976C85.8607 12.7993 85.6571 12.6527 85.4917 12.468C85.3263 12.2832 85.2031 12.0646 85.1307 11.8274C85.0582 11.5902 85.0383 11.3401 85.0722 11.0944C85.0391 10.848 85.0595 10.5974 85.1317 10.3595C85.204 10.1216 85.3266 9.90199 85.4911 9.71557C85.6556 9.52916 85.8582 9.38026 86.0853 9.27897C86.3124 9.17768 86.5585 9.12636 86.8071 9.12848C87.8542 9.12848 88.4858 9.84382 88.4858 11.0255V11.2846H85.8287V11.3262C85.817 11.4643 85.8344 11.6033 85.8796 11.7343C85.9249 11.8653 85.997 11.9854 86.0913 12.0869C86.1857 12.1884 86.3002 12.269 86.4275 12.3237C86.5549 12.3783 86.6922 12.4058 86.8308 12.4042C87.0085 12.4256 87.1884 12.3936 87.3478 12.3123C87.5073 12.2311 87.6389 12.1043 87.7261 11.948L88.441 11.9481ZM85.8286 10.7354H87.7293C87.7387 10.6091 87.7215 10.4822 87.6789 10.3629C87.6363 10.2437 87.5693 10.1346 87.482 10.0428C87.3948 9.95103 87.2893 9.87849 87.1724 9.82987C87.0555 9.78125 86.9297 9.75764 86.803 9.76054C86.6746 9.75893 86.5471 9.78304 86.4282 9.83147C86.3092 9.87989 86.2011 9.95164 86.1103 10.0425C86.0195 10.1333 85.9478 10.2414 85.8994 10.3604C85.8511 10.4794 85.827 10.6069 85.8286 10.7354Z" fill="white"/>
</g>
</g>
</g>
<defs>
<clipPath id="clip0_7_185">
<rect width="100" height="34" fill="white" transform="translate(0.894836 0.394531)"/>
</clipPath>
<clipPath id="clip1_7_185">
<rect width="100" height="34" fill="white" transform="translate(0.894836 0.394531)"/>
</clipPath>
<clipPath id="clip2_7_185">
<rect width="100" height="33.4269" fill="white" transform="translate(0.894836 0.681152)"/>
</clipPath>
</defs>
</svg>
