<svg width="38" height="42" viewBox="0 0 38 42" fill="none" xmlns="http://www.w3.org/2000/svg">
<path fill-rule="evenodd"  d="M13.3094 1.51031C12.6424 1.81895 12.1555 2.44514 12.0397 3.19799C12.0137 3.36691 12.0137 3.56867 12.0137 3.97218V11.9644C12.0137 12.2977 12.0137 12.4934 12.0283 12.6465V31.7053C12.0283 33.2453 13.2356 34.3566 14.6796 34.3566C16.188 34.3566 17.3631 33.2453 17.3631 31.7053V23.8829C17.3631 22.6842 17.7079 21.8208 18.2279 21.2634C18.7435 20.7107 19.4991 20.3856 20.474 20.3856C21.4732 20.3856 22.1669 20.699 22.6216 21.2157C23.0886 21.7463 23.3919 22.5918 23.3919 23.8185V31.7053C23.3919 31.8079 23.3971 31.9085 23.4072 32.007V35.8297C21.8058 36.4552 20.0457 36.8021 18.1859 36.8021C10.4285 36.8021 4.40493 30.7679 4.40493 23.6458C4.40493 21.0777 5.18807 18.6511 6.55325 16.5979C7.12746 15.7342 7.21495 14.6015 6.63095 13.7445C5.82657 12.564 4.13604 12.4062 3.29559 13.5613C1.21904 16.4151 0 19.893 0 23.6458C0 33.3446 8.1421 41.207 18.1859 41.207C21.7364 41.207 25.0493 40.2245 27.8489 38.5256C28.3701 38.2093 28.6681 37.6334 28.6681 37.0237C28.6681 37.0057 28.6678 36.9878 28.6673 36.9699C28.6849 36.857 28.694 36.7413 28.694 36.6234V32.1466C28.7155 32.0039 28.7266 31.8566 28.7266 31.7053V22.6274C28.7266 20.5197 28.1431 18.7034 26.9615 17.4065C25.7716 16.1004 24.0513 15.405 21.9548 15.405C19.9021 15.405 18.456 16.1494 17.3631 17.1585V11.7467C17.3631 11.657 17.3587 11.5683 17.3501 11.4809V5.26423C18.201 5.10533 19.0786 5.02224 19.9755 5.02224C25.4836 5.02224 30.2599 8.15539 32.6195 12.7367C32.8421 13.1688 33.1361 13.5628 33.5118 13.8712C35.6227 15.6037 38.4805 14.0057 37.3707 11.5105C34.4087 4.85075 27.7344 0.207031 19.9755 0.207031C17.8421 0.207031 15.7907 0.558115 13.876 1.20566C13.6663 1.27654 13.4764 1.38047 13.3094 1.51031ZM16.6433 14.0293L16.6432 14.0293V19.0863L16.6433 19.0862V14.0293ZM28.0068 29.5759L28.0067 29.5758V22.6273C28.0067 21.5161 27.8343 20.5164 27.5009 19.6532C27.8344 20.5164 28.0068 21.5161 28.0068 22.6274V29.5759ZM20.474 19.6657C21.17 19.6657 21.776 19.7993 22.2834 20.0585C21.776 19.7993 21.17 19.6658 20.474 19.6658C18.1884 19.6658 16.6433 21.211 16.6433 23.8829V31.7053C16.6433 32.832 15.8063 33.6368 14.6796 33.6368C14.5455 33.6368 14.4145 33.624 14.2879 33.5993C14.4145 33.624 14.5455 33.6368 14.6795 33.6368C15.8062 33.6368 16.6432 32.832 16.6432 31.7053V23.8828C16.6432 21.2109 18.1884 19.6657 20.474 19.6657Z" fill="white"/>
</svg>
