<svg width="93" height="41" viewBox="0 0 93 41" fill="none" xmlns="http://www.w3.org/2000/svg">
<path d="M41.0274 35.1238C39.2433 35.1238 37.7107 34.767 36.4294 34.0534C35.1643 33.3235 34.1912 32.3017 33.51 30.988C32.8288 29.6581 32.4882 28.093 32.4882 26.2927C32.4882 24.9465 32.6828 23.7382 33.0721 22.6678C33.4613 21.5811 34.0209 20.6566 34.7507 19.8943C35.4806 19.1158 36.3726 18.5238 37.4268 18.1184C38.4973 17.6967 39.6975 17.4858 41.0274 17.4858C41.9194 17.4858 42.7953 17.5994 43.6549 17.8264C44.5145 18.0535 45.2686 18.3779 45.9174 18.7996C46.258 19.0104 46.485 19.2699 46.5986 19.5781C46.7121 19.87 46.7364 20.1619 46.6716 20.4539C46.6067 20.7296 46.4688 20.9648 46.258 21.1594C46.0634 21.354 45.812 21.4676 45.5038 21.5C45.2119 21.5162 44.8875 21.4108 44.5307 21.1837C44.0279 20.8594 43.4846 20.6242 42.9007 20.4782C42.3168 20.3322 41.7248 20.2593 41.1247 20.2593C39.9732 20.2593 39.0001 20.4944 38.2053 20.9648C37.4106 21.4351 36.8105 22.1163 36.405 23.0084C35.9996 23.9004 35.7968 24.9952 35.7968 26.2927C35.7968 27.574 35.9996 28.6687 36.405 29.577C36.8105 30.4852 37.4106 31.1745 38.2053 31.6449C39.0001 32.1152 39.9732 32.3504 41.1247 32.3504C41.741 32.3504 42.3492 32.2774 42.9493 32.1314C43.5494 31.9693 44.1171 31.726 44.6523 31.4016C45.0091 31.1908 45.3254 31.1015 45.6011 31.134C45.8931 31.1502 46.1363 31.2475 46.331 31.4259C46.5256 31.6043 46.6553 31.8314 46.7202 32.1071C46.7851 32.3666 46.7689 32.6423 46.6716 32.9343C46.5742 33.21 46.3796 33.4533 46.0877 33.6641C45.4389 34.1345 44.6604 34.4994 43.7522 34.7589C42.8601 35.0022 41.9519 35.1238 41.0274 35.1238Z" fill="#17191B"/>
<path d="M52.2595 35.1238C50.9133 35.1238 49.8996 34.7427 49.2184 33.9804C48.5372 33.2019 48.1966 32.0666 48.1966 30.5744V19.0672C48.1966 18.5644 48.3264 18.1832 48.5859 17.9237C48.8454 17.6642 49.2184 17.5345 49.705 17.5345C50.1916 17.5345 50.5646 17.6642 50.8241 17.9237C51.0998 18.1832 51.2377 18.5644 51.2377 19.0672V30.4285C51.2377 31.1745 51.3917 31.726 51.6999 32.0828C52.0243 32.4396 52.4784 32.618 53.0623 32.618C53.192 32.618 53.3137 32.618 53.4272 32.618C53.5407 32.6018 53.6543 32.5856 53.7678 32.5693C53.9949 32.5369 54.149 32.6018 54.23 32.764C54.3111 32.9099 54.3517 33.2181 54.3517 33.6884C54.3517 34.0939 54.2706 34.4102 54.1084 34.6372C53.9462 34.8643 53.6786 35.0022 53.3056 35.0508C53.1434 35.067 52.9731 35.0833 52.7947 35.0995C52.6163 35.1157 52.4379 35.1238 52.2595 35.1238Z" fill="#17191B"/>
<path d="M60.1772 35.1238C58.9445 35.1238 57.8741 34.8724 56.9658 34.3696C56.0576 33.8669 55.3521 33.1532 54.8493 32.2288C54.3465 31.2881 54.0951 30.1852 54.0951 28.9201C54.0951 27.9632 54.233 27.1117 54.5087 26.3656C54.8006 25.6034 55.2142 24.9546 55.7494 24.4194C56.2846 23.8679 56.9253 23.4544 57.6713 23.1786C58.4174 22.8867 59.2527 22.7407 60.1772 22.7407C61.4098 22.7407 62.4802 22.9921 63.3885 23.4949C64.2967 23.9977 65.0023 24.7113 65.505 25.6358C66.0078 26.5603 66.2592 27.655 66.2592 28.9201C66.2592 29.877 66.1133 30.7366 65.8213 31.4989C65.5456 32.2612 65.1401 32.9181 64.6049 33.4695C64.0697 34.0047 63.429 34.4183 62.683 34.7102C61.9369 34.986 61.1016 35.1238 60.1772 35.1238ZM60.1772 32.8126C60.7773 32.8126 61.3044 32.6667 61.7585 32.3747C62.2126 32.0828 62.5613 31.653 62.8046 31.0853C63.0641 30.5014 63.1939 29.7797 63.1939 28.9201C63.1939 27.6226 62.9181 26.6576 62.3667 26.0251C61.8153 25.3763 61.0854 25.0519 60.1772 25.0519C59.5771 25.0519 59.0499 25.1979 58.5958 25.4898C58.1417 25.7656 57.7849 26.1954 57.5254 26.7792C57.2821 27.3469 57.1605 28.0605 57.1605 28.9201C57.1605 30.2014 57.4362 31.1745 57.9876 31.8395C58.5391 32.4883 59.2689 32.8126 60.1772 32.8126Z" fill="#17191B"/>
<path d="M71.9805 35.1238C70.9912 35.1238 70.1721 34.9454 69.5234 34.5886C68.8746 34.2156 68.3881 33.6641 68.0637 32.9343C67.7555 32.2044 67.6015 31.2962 67.6015 30.2095V24.3221C67.6015 23.8031 67.7312 23.4219 67.9907 23.1786C68.2502 22.9191 68.6232 22.7894 69.1098 22.7894C69.5964 22.7894 69.9694 22.9191 70.2289 23.1786C70.5046 23.4219 70.6425 23.8031 70.6425 24.3221V30.2582C70.6425 31.1015 70.8128 31.726 71.1534 32.1314C71.494 32.5369 72.0373 32.7396 72.7834 32.7396C73.5943 32.7396 74.2593 32.4639 74.7783 31.9125C75.2973 31.3448 75.5568 30.5988 75.5568 29.6743V24.3221C75.5568 23.8031 75.6865 23.4219 75.946 23.1786C76.2055 22.9191 76.5786 22.7894 77.0651 22.7894C77.5517 22.7894 77.9247 22.9191 78.1842 23.1786C78.46 23.4219 78.5978 23.8031 78.5978 24.3221V33.5182C78.5978 34.5562 78.1031 35.0752 77.1138 35.0752C76.6435 35.0752 76.2785 34.9454 76.019 34.6859C75.7595 34.4102 75.6298 34.0209 75.6298 33.5182V31.6692L75.9704 32.3991C75.6298 33.2749 75.1108 33.948 74.4134 34.4183C73.7322 34.8886 72.9212 35.1238 71.9805 35.1238Z" fill="#17191B"/>
<path d="M85.2419 35.1238C84.2039 35.1238 83.2875 34.8724 82.4928 34.3696C81.7143 33.8669 81.1061 33.1532 80.6682 32.2288C80.2303 31.2881 80.0113 30.1852 80.0113 28.9201C80.0113 27.6388 80.2303 26.5441 80.6682 25.6358C81.1061 24.7113 81.7143 23.9977 82.4928 23.4949C83.2875 22.9921 84.2039 22.7407 85.2419 22.7407C86.2312 22.7407 87.0908 22.984 87.8207 23.4706C88.5668 23.9572 89.0695 24.5978 89.329 25.3925H89.0614V19.0672C89.0614 18.5644 89.1912 18.1832 89.4507 17.9237C89.7102 17.6642 90.0832 17.5345 90.5698 17.5345C91.0563 17.5345 91.4294 17.6642 91.6889 17.9237C91.9646 18.1832 92.1025 18.5644 92.1025 19.0672V33.5182C92.1025 34.0209 91.9727 34.4102 91.7132 34.6859C91.4537 34.9454 91.0807 35.0752 90.5941 35.0752C90.1075 35.0752 89.7345 34.9454 89.475 34.6859C89.2155 34.4102 89.0858 34.0209 89.0858 33.5182V31.6205L89.3534 32.3504C89.1101 33.1938 88.6154 33.8669 87.8694 34.3696C87.1233 34.8724 86.2475 35.1238 85.2419 35.1238ZM86.0934 32.8126C86.6935 32.8126 87.2206 32.6667 87.6747 32.3747C88.1288 32.0828 88.4776 31.653 88.7208 31.0853C88.9803 30.5014 89.1101 29.7797 89.1101 28.9201C89.1101 27.6226 88.8344 26.6576 88.2829 26.0251C87.7315 25.3763 87.0016 25.0519 86.0934 25.0519C85.4933 25.0519 84.9662 25.1979 84.5121 25.4898C84.0579 25.7656 83.7011 26.1954 83.4416 26.7792C83.1983 27.3469 83.0767 28.0605 83.0767 28.9201C83.0767 30.2014 83.3524 31.1745 83.9038 31.8395C84.4553 32.4883 85.1851 32.8126 86.0934 32.8126Z" fill="#17191B"/>
<path fill-rule="evenodd"  d="M13.3094 1.30328C12.6424 1.61192 12.1555 2.23811 12.0397 2.99096C12.0137 3.15988 12.0137 3.36164 12.0137 3.76515V11.7574C12.0137 12.0907 12.0137 12.2863 12.0283 12.4395V31.4983C12.0283 33.0382 13.2356 34.1496 14.6796 34.1496C16.188 34.1496 17.3631 33.0382 17.3631 31.4983V23.6758C17.3631 22.4771 17.7079 21.6137 18.2279 21.0564C18.7435 20.5037 19.4991 20.1786 20.474 20.1786C21.4732 20.1786 22.1669 20.4919 22.6216 21.0087C23.0886 21.5393 23.3919 22.3848 23.3919 23.6114V31.4983C23.3919 31.6008 23.3971 31.7014 23.4072 31.8V35.6227C21.8058 36.2482 20.0457 36.595 18.1859 36.595C10.4285 36.595 4.40493 30.5609 4.40493 23.4388C4.40493 20.8707 5.18807 18.4441 6.55325 16.3908C7.12746 15.5272 7.21495 14.3945 6.63095 13.5374C5.82657 12.357 4.13604 12.1992 3.29559 13.3542C1.21904 16.2081 0 19.6859 0 23.4388C0 33.1376 8.1421 41 18.1859 41C21.7364 41 25.0493 40.0174 27.8489 38.3185C28.3701 38.0022 28.6681 37.4263 28.6681 36.8166C28.6681 36.7986 28.6678 36.7807 28.6673 36.7629C28.6849 36.65 28.694 36.5343 28.694 36.4164V31.9395C28.7155 31.7968 28.7266 31.6495 28.7266 31.4983V22.4204C28.7266 20.3127 28.1431 18.4964 26.9615 17.1995C25.7716 15.8934 24.0513 15.1979 21.9548 15.1979C19.9021 15.1979 18.456 15.9424 17.3631 16.9514V11.5397C17.3631 11.45 17.3587 11.3613 17.3501 11.2738V5.05719C18.201 4.8983 19.0786 4.81521 19.9755 4.81521C25.4836 4.81521 30.2599 7.94836 32.6195 12.5297C32.8421 12.9618 33.1361 13.3558 33.5118 13.6641C35.6227 15.3967 38.4805 13.7987 37.3707 11.3035C34.4087 4.64372 27.7344 0 19.9755 0C17.8421 0 15.7907 0.351084 13.876 0.998627C13.6663 1.06951 13.4764 1.17343 13.3094 1.30328ZM16.6433 13.8222L16.6432 13.8223V18.8793L16.6433 18.8792V13.8222ZM28.0068 29.3688L28.0067 29.3688V22.4203C28.0067 21.309 27.8343 20.3094 27.5009 19.4461C27.8344 20.3094 28.0068 21.3091 28.0068 22.4204V29.3688ZM20.474 19.4587C21.17 19.4587 21.776 19.5922 22.2834 19.8515C21.776 19.5923 21.17 19.4588 20.474 19.4588C18.1884 19.4588 16.6433 21.004 16.6433 23.6758V31.4983C16.6433 32.625 15.8063 33.4298 14.6796 33.4298C14.5455 33.4298 14.4145 33.417 14.2879 33.3923C14.4145 33.4169 14.5455 33.4297 14.6795 33.4297C15.8062 33.4297 16.6432 32.6249 16.6432 31.4982V23.6758C16.6432 21.0039 18.1884 19.4587 20.474 19.4587Z" fill="#11438F"/>
</svg>
